<?xml version="1.0" encoding="UTF-8" standalone="no"?>
<!-- Created with Inkscape (http://www.inkscape.org/) -->

<svg version="1.1" id="svg3062" xml:space="preserve" width="20.000252" height="22.431814"
    xmlns:inkscape="http://www.inkscape.org/namespaces/inkscape"
    xmlns:sodipodi="http://sodipodi.sourceforge.net/DTD/sodipodi-0.dtd" xmlns="http://www.w3.org/2000/svg"
    xmlns:svg="http://www.w3.org/2000/svg">
    <defs id="defs3066" />
    <sodipodi:namedview id="namedview3064" pagecolor="#ffffff" bordercolor="#000000" borderopacity="0.25"
        inkscape:showpageshadow="2" inkscape:pageopacity="0.0" inkscape:pagecheckerboard="0"
        inkscape:deskcolor="#d1d1d1" />
    <inkscape:clipboard
        style="font-variation-settings:normal;opacity:1;vector-effect:none;fill:#9f9f9f;fill-opacity:1;stroke-width:0.04385348;stroke-linecap:butt;stroke-linejoin:miter;stroke-miterlimit:4;stroke-dasharray:none;stroke-dashoffset:0;stroke-opacity:1;-inkscape-stroke:none;stop-color:#000000;stop-opacity:1"
        min="176.90965,208.47078" max="196.9099,230.90259" geom-min="176.90965,208.47078"
        geom-max="196.9099,230.90259" />
    <g id="g3068" transform="matrix(3.7795276,0,0,3.7795276,-176.90966,-208.47078)">
        <path style="fill:#9f9f9f;fill-opacity:1;stroke-width:0.0116029"
            d="m 47.387893,61.086014 c -0.05834,-0.0098 -0.146901,-0.04222 -0.223218,-0.0818 -0.142479,-0.07389 -0.271194,-0.226307 -0.325189,-0.385065 l -0.02594,-0.07626 -0.0031,-1.708524 -0.0031,-1.708524 h 0.202975 0.202976 l 0.0032,0.948535 c 0.0029,0.871749 0.0048,0.951489 0.02313,0.985014 0.02982,0.05448 0.08931,0.109307 0.148146,0.136542 l 0.05234,0.02423 h 2.013099 2.0131 l 0.05234,-0.02423 c 0.05884,-0.02724 0.118327,-0.08206 0.148146,-0.136542 0.01835,-0.03352 0.02022,-0.113265 0.02313,-0.985014 l 0.0032,-0.948535 h 0.202975 0.202976 l -0.0031,1.708524 -0.0031,1.708524 -0.02593,0.07626 c -0.07518,0.221047 -0.263509,0.392164 -0.497465,0.452 -0.08749,0.02238 -0.134328,0.02285 -2.121012,0.0213 -1.117352,-8.73e-4 -2.044602,-0.0038 -2.060556,-0.0064 z m 0.359689,-2.526973 v -0.2381 h 0.2381 0.238099 l -0.0031,0.234959 -0.0031,0.234958 -0.234959,0.0031 -0.234958,0.0031 z m 0.730982,-2.41e-4 v -0.237859 h 0.237859 0.237859 v 0.23786 0.237859 h -0.237859 -0.237859 z m 0.742584,0 v -0.237859 h 0.232058 0.232057 v 0.237859 0.237859 h -0.232057 -0.232058 z m 0.730982,0 v -0.237859 h 0.237859 0.237859 V 58.5588 58.796659 H 50.189989 49.95213 Z m 0.730981,0 v -0.237859 h 0.237859 0.237859 V 58.5588 58.796659 H 50.92097 50.683111 Z m -2.935529,-0.742824 v -0.238099 l 0.234959,0.0031 0.234958,0.0031 0.0031,0.234958 0.0031,0.234958 H 47.9856 47.747501 Z m 0.730982,2.4e-4 v -0.237859 h 0.237859 0.237859 v 0.237859 0.237859 h -0.237859 -0.237859 z m 0.742584,0 v -0.237859 h 0.232058 0.232057 v 0.237859 0.237859 h -0.232057 -0.232058 z m 0.730982,0 v -0.237859 h 0.237859 0.237859 v 0.237859 0.237859 H 50.189989 49.95213 Z m 0.733642,0.0029 0.0031,-0.234958 0.234959,-0.0031 0.234958,-0.0031 v 0.2381 0.238099 H 50.92073 50.682631 Z m -3.878023,-1.209029 c 0,-0.237376 0.0092,-0.291701 0.07219,-0.424077 0.03742,-0.0787 0.06476,-0.116208 0.135289,-0.185646 0.147598,-0.145308 0.27435,-0.193244 0.542306,-0.205091 l 0.163842,-0.0072 0.0059,-0.140394 c 0.0044,-0.105928 0.01212,-0.156778 0.03135,-0.207134 0.128443,-0.336341 0.570636,-0.383345 0.764483,-0.08126 0.05002,0.07794 0.07152,0.172019 0.07152,0.31288 v 0.119393 h 0.225118 0.225118 l 0.0042,-0.153738 c 0.0037,-0.137495 0.0075,-0.160791 0.03532,-0.220486 0.04386,-0.09402 0.132778,-0.184074 0.221259,-0.224076 0.06035,-0.02728 0.08838,-0.03274 0.170822,-0.03327 0.08677,-5.56e-4 0.107695,0.0037 0.174076,0.03505 0.184685,0.08734 0.265868,0.243367 0.266603,0.512401 l 2.29e-4,0.08412 h 0.218889 0.218888 l 0.0059,-0.142135 c 0.0045,-0.107644 0.01212,-0.158331 0.03142,-0.208876 0.125863,-0.329586 0.556672,-0.383644 0.75541,-0.09479 0.057,0.08285 0.07133,0.137305 0.07917,0.300764 l 0.0072,0.150837 0.168242,0.0066 c 0.14882,0.0058 0.177617,0.01038 0.249462,0.03937 0.173545,0.07004 0.299194,0.185663 0.37627,0.346259 0.05923,0.123416 0.07044,0.191499 0.07044,0.427902 v 0.195118 h -2.645457 -2.645456 z m 1.439221,-0.03309 c 0.03453,-0.01826 0.05898,-0.04271 0.07724,-0.07724 0.02655,-0.0502 0.02672,-0.05338 0.02672,-0.495784 0,-0.48409 -0.0011,-0.493361 -0.06543,-0.553373 -0.09617,-0.08971 -0.238993,-0.05697 -0.295656,0.06777 -0.01943,0.04277 -0.02132,0.08489 -0.02156,0.479471 -2.15e-4,0.364605 0.0026,0.439334 0.0177,0.47556 0.04907,0.117446 0.155156,0.159558 0.260975,0.1036 z m 1.339192,-0.01274 c 0.08327,-0.06352 0.0817,-0.05263 0.0817,-0.56389 0,-0.511255 0.0016,-0.500374 -0.0817,-0.56389 -0.08788,-0.06703 -0.212904,-0.0394 -0.268863,0.0594 -0.02591,0.04575 -0.02615,0.05036 -0.02615,0.504489 0,0.454133 2.39e-4,0.458735 0.02615,0.504489 0.05596,0.0988 0.180988,0.126426 0.268863,0.0594 z m 1.294662,0.01274 c 0.03453,-0.01826 0.05898,-0.04271 0.07724,-0.07724 0.02655,-0.0502 0.02672,-0.05338 0.02672,-0.495784 0,-0.48409 -0.0011,-0.493361 -0.06543,-0.553373 -0.09617,-0.08971 -0.238993,-0.05697 -0.295655,0.06777 -0.01943,0.04277 -0.02132,0.08489 -0.02156,0.479471 -2.14e-4,0.364605 0.0026,0.439334 0.0177,0.47556 0.04907,0.117446 0.155156,0.159558 0.260975,0.1036 z"
            id="path179" />
    </g>
</svg>