<?xml version="1.0" encoding="UTF-8" standalone="no"?>
<!-- Created with Inkscape (http://www.inkscape.org/) -->

<svg width="82.389626mm" height="80.528854mm" viewBox="0 0 82.389626 80.528854" version="1.1" id="svg5"
  xml:space="preserve" xmlns:inkscape="http://www.inkscape.org/namespaces/inkscape"
  xmlns:sodipodi="http://sodipodi.sourceforge.net/DTD/sodipodi-0.dtd" xmlns="http://www.w3.org/2000/svg"
  xmlns:svg="http://www.w3.org/2000/svg">
  <sodipodi:namedview id="namedview7" pagecolor="#ffffff" bordercolor="#9F9F9F" borderopacity="0.25"
    inkscape:showpageshadow="2" inkscape:pageopacity="0.0" inkscape:pagecheckerboard="0" inkscape:deskcolor="#d1d1d1"
    inkscape:document-units="mm" showgrid="false" />
  <defs id="defs2" />
  <g inkscape:label="Layer 1" inkscape:groupmode="layer" id="layer1" transform="translate(73.847124,-71.075056)">
    <path style="fill:#9F9F9F;stroke-width:0.161469"
      d="m -4.7500062,146.45634 -13.0789608,-5.13534 -1.53396,0.76231 c -3.72275,1.85004 -7.08482,2.93745 -11.30281,3.65571 -1.31488,0.22391 -2.60147,0.28912 -5.73214,0.29055 -4.3788,0.002 -5.61015,-0.13766 -9.28445,-1.05299 -13.132251,-3.27147 -23.741061,-13.87623 -27.048852,-27.03855 -0.873252,-3.47483 -1.118787,-5.53544 -1.115917,-9.36518 0.0046,-6.1471 1.139994,-11.095257 3.779106,-16.469807 7.492653,-15.258782 24.202153,-23.574646 40.855473,-20.332655 7.21561,1.404702 13.58931,4.720375 18.832381,9.796825 4.6460798,4.49842 7.8336798,9.59759 9.75701975,15.60819 1.34101,4.190777 1.86667005,8.082847 1.71378005,12.689197 -0.18842005,5.67669 -1.24129005,9.98849 -3.69493,15.13181 l -0.82526,1.72991 5.9228397,12.19199 c 6.4486496,13.27434 6.1727296,12.68869 5.9740296,12.67966 -0.0761,-0.003 -6.0239196,-2.31719 -13.2173493,-5.14163 z m 1.27203,-6.7604 c -0.31158,-0.68826 -2.02093,-4.16497 -3.79856,-7.72603 l -3.2320698,-6.47466 0.6857398,-1.11437 c 2.57605,-4.18626 4.34664,-10.4923 4.34612,-15.47896 -0.002,-14.502657 -9.7690708,-26.971127 -23.7282508,-30.28952 -4.70546,-1.118588 -10.00628,-1.082892 -14.72419,0.09915 -11.089915,2.778513 -19.794375,11.575743 -22.429379,22.66842 -0.851323,3.58385 -1.074893,8.22197 -0.560752,11.63326 1.008772,6.69312 3.977338,12.64088 8.629135,17.28916 0.939797,0.93908 2.218823,2.10961 2.842283,2.60115 6.368198,5.02082 14.719693,7.34775 22.786963,6.349 4.42966,-0.5484 7.89505,-1.7434 12.40994,-4.2794 l 0.64587,-0.36279 4.52112,1.71159 c 2.486621,0.94138 6.1560008,2.36279 8.1541708,3.1587 1.99818,0.79592 3.71974,1.45152 3.8257,1.4569 0.11463,0.006 -0.0368,-0.49698 -0.37384,-1.24161 z M -59.506224,118.19541 c -0.743317,-0.45326 -1.235131,-1.60192 -1.321001,-3.08529 -0.137717,-2.37898 0.691325,-3.88682 2.260958,-4.11218 0.38118,-0.0547 6.954763,-0.0778 14.60796,-0.0513 13.82094,0.0479 13.91799,0.0505 14.37072,0.38546 0.25069,0.18548 0.63746,0.65778 0.85948,1.04955 0.35618,0.62851 0.40367,0.90225 0.40367,2.32699 0,1.36291 -0.0584,1.73333 -0.37476,2.37557 -0.21376,0.43401 -0.60347,0.90224 -0.90714,1.08992 -0.52528,0.32464 -0.72463,0.32902 -14.96476,0.32842 -13.890565,-6.5e-4 -14.45127,-0.0121 -14.935127,-0.30716 z m 0.483987,-12.5957 c -1.264576,-0.57427 -1.913561,-1.90782 -1.811081,-3.72146 0.07961,-1.4089 0.689125,-2.469457 1.737401,-3.023087 l 0.714919,-0.37758 21.500861,0.0421 21.50086,0.0421 0.64393,0.44626 c 0.873761,0.60554 1.368381,1.537037 1.465481,2.759887 0.14208,1.78936 -0.47871,3.14597 -1.728551,3.77737 l -0.71915,0.3633 -21.32003,-0.004 c -20.47382,-0.003 -21.3464,-0.0155 -21.98464,-0.30536 z"
      id="path411" />
  </g>
</svg>