<?xml version="1.0" encoding="UTF-8" standalone="no"?>
<!-- Created with Inkscape (http://www.inkscape.org/) -->

<svg version="1.1" id="svg237" xml:space="preserve" width="21.001587" height="22.997646"
    xmlns:inkscape="http://www.inkscape.org/namespaces/inkscape"
    xmlns:sodipodi="http://sodipodi.sourceforge.net/DTD/sodipodi-0.dtd" xmlns="http://www.w3.org/2000/svg"
    xmlns:svg="http://www.w3.org/2000/svg">
    <defs id="defs241" />
    <sodipodi:namedview id="namedview239" pagecolor="#ffffff" bordercolor="#000000" borderopacity="0.25"
        inkscape:showpageshadow="2" inkscape:pageopacity="0.0" inkscape:pagecheckerboard="0"
        inkscape:deskcolor="#d1d1d1" />
    <inkscape:clipboard
        style="font-variation-settings:normal;opacity:1;vector-effect:none;fill:#000000;fill-opacity:1;stroke-width:0.12956334;stroke-linecap:butt;stroke-linejoin:miter;stroke-miterlimit:4;stroke-dasharray:none;stroke-dashoffset:0;stroke-opacity:1;-inkscape-stroke:none;stop-color:#000000;stop-opacity:1"
        min="440.84629,349.22084" max="461.84787,372.21848" geom-min="440.84629,349.22084"
        geom-max="461.84787,372.21848" />
    <g id="g243" transform="matrix(3.7795276,0,0,3.7795276,-440.84629,-349.22084)">
        <path style="fill:#000000;stroke-width:0.0342803"
            d="m 119.97581,98.441662 -0.0412,-0.04115 V 96.85087 95.301226 l 0.9209,-1.314483 0.92085,-1.314486 -1.17799,-0.0087 c -0.64788,-0.0049 -1.7083,-0.0049 -2.3565,0 l -1.17856,0.0087 0.92143,1.31551 0.92147,1.315508 v 1.103008 1.103007 l 0.25717,0.146333 c 0.14162,0.08047 0.27182,0.173711 0.28977,0.207234 l 0.0325,0.06087 -0.0515,0.07386 c -0.0284,0.04059 -0.0689,0.07386 -0.0904,0.07386 -0.0707,0 -0.70542,-0.380189 -0.72662,-0.435406 -0.0102,-0.02991 -0.0205,-0.551655 -0.0179,-1.159414 l 0.002,-1.105014 -0.98031,-1.399715 -0.98034,-1.399715 0.0102,-0.08707 0.0102,-0.0871 h 2.75957 2.75959 l -8.1e-4,0.102823 -4.1e-4,0.102848 -0.97094,1.384319 -0.97092,1.384315 0.005,1.463583 0.005,1.463586 -0.0351,0.09166 -0.0351,0.09166 h -0.0799 c -0.0438,0 -0.0983,-0.01844 -0.12087,-0.04116 z m 0.78839,-0.342806 c -0.0551,-0.05496 -0.052,-0.14705 0.005,-0.19535 l 0.0471,-0.03923 0.68125,0.009 0.68119,0.009 0.0102,0.07903 c 0.005,0.04346 -0.008,0.101286 -0.0297,0.128535 l -0.0412,0.04955 h -0.65745 -0.6574 z m 0.0231,-1.152051 c -0.0353,-0.02459 -0.064,-0.07422 -0.064,-0.110224 v -0.06538 l 0.0663,-0.03547 0.0661,-0.03547 h 0.62956 0.62959 l 0.0412,0.04115 c 0.023,0.02254 0.0412,0.07711 0.0412,0.121057 v 0.0799 l -0.0458,0.01767 c -0.0261,0.0095 -0.32824,0.02074 -0.6731,0.02459 l -0.62703,0.0069 z m -0.0231,-1.144735 c -0.0551,-0.05496 -0.052,-0.14705 0.005,-0.19535 l 0.0471,-0.03923 0.68125,0.009 0.68119,0.009 0.0102,0.07903 c 0.005,0.04346 -0.008,0.101286 -0.0297,0.128535 l -0.0412,0.04955 h -0.65745 -0.6574 z"
            id="path197" />
    </g>
</svg>