<svg width="19" height="19" viewBox="0 0 19 19" fill="none" xmlns="http://www.w3.org/2000/svg">
    <path
        d="M13.8603 1.71026C14.0855 1.48508 14.3528 1.30646 14.647 1.18459C14.9413 1.06272 15.2566 1 15.575 1C15.8935 1 16.2088 1.06272 16.503 1.18459C16.7972 1.30646 17.0646 1.48508 17.2897 1.71026C17.5149 1.93544 17.6935 2.20276 17.8154 2.49697C17.9373 2.79118 18 3.10651 18 3.42497C18 3.74342 17.9373 4.05875 17.8154 4.35296C17.6935 4.64717 17.5149 4.9145 17.2897 5.13968L5.71545 16.714L1 18L2.28603 13.2845L13.8603 1.71026Z"
        stroke="white" stroke-width="2" stroke-linecap="round" stroke-linejoin="round" />
</svg>