<svg width="17" height="20" viewBox="0 0 17 20" fill="none" xmlns="http://www.w3.org/2000/svg">
    <path
        d="M9.73753 2.665C9.71653 2.6545 7.63603 1.6665 5.98053 1.5405C4.24053 1.405 2.49703 2.3285 2.47903 2.3385L2.24353 1.897C2.31953 1.8565 4.13353 0.900996 6.01853 1.0415C7.76803 1.1755 9.86453 2.172 9.95303 2.214L9.73753 2.665Z"
        fill="black" />
    <path
        d="M7.97852 3.64849L7.75952 3.19899L9.47452 2.36299L8.36652 0.840494L8.77102 0.546494L10.2295 2.55049L7.97852 3.64849Z"
        fill="black" />
    <path
        d="M0.511459 4.957L0.295959 4.506C0.384459 4.464 2.48096 3.4675 4.23096 3.3335C6.10996 3.1965 7.92946 4.1485 8.00546 4.189L7.76996 4.6305C7.75246 4.621 6.00346 3.697 4.26896 3.8325C2.61346 3.9585 0.532459 4.947 0.511459 4.957Z"
        fill="black" />
    <path d="M2.27097 5.9405L0.0194702 4.8425L1.47797 2.8385L1.88247 3.1325L0.77447 4.655L2.48947 5.491L2.27097 5.9405Z"
        fill="black" />
    <path
        d="M11.669 19.719C11.0325 19.719 10.387 19.65 9.80301 19.52C8.80651 19.298 6.71001 17.6985 6.26651 17.239C5.86551 16.8235 4.79151 15.2285 4.63401 13.931C4.56501 13.366 4.99851 11.6825 5.52901 11.0835C5.63351 10.966 5.74301 10.887 5.85501 10.848C5.83248 10.7965 5.80964 10.7452 5.78651 10.694C5.44151 9.943 4.93051 9.0755 4.47951 8.3095C3.71601 7.0125 3.43151 6.4945 3.47951 6.1995C3.56001 5.6995 3.97001 5.1225 4.51601 5.0215L4.61251 5.002C4.75327 4.96807 4.89725 4.9493 5.04201 4.946C5.51851 4.946 5.95501 5.218 6.41651 5.8015C6.81601 6.307 7.46301 7.7025 8.00751 8.965C7.98251 8.647 7.99201 8.3815 8.05901 8.2265C8.32901 7.6 9.08201 7.3535 9.31151 7.339L9.36801 7.3375C9.51351 7.3375 10.258 7.374 10.603 8.098C10.658 8.214 10.7105 8.339 10.759 8.4655C10.821 8.2505 10.909 8.063 11.0345 7.956C11.4205 7.628 11.949 7.458 12.3085 7.559C12.695 7.6675 13.0205 8.0765 13.138 8.603C13.1885 8.489 13.2495 8.3965 13.3215 8.3425C13.671 8.0805 14.279 8.0525 14.664 8.3195C15.134 8.6455 16.215 10.5985 16.405 12.3065C16.5605 13.7105 16.736 16.2195 16.1565 17.2535C15.5545 18.326 14.323 19.159 13.4335 19.4785C13.0005 19.633 12.374 19.719 11.669 19.719ZM6.03401 11.329C5.70201 11.362 5.05151 13.222 5.13001 13.8695C5.27101 15.0335 6.27051 16.5225 6.62651 16.8915C7.05001 17.3305 9.05501 18.8405 9.91101 19.031C10.4605 19.1535 11.0675 19.2185 11.6685 19.2185C12.308 19.2185 12.889 19.141 13.263 19.006C13.9355 18.7645 15.1435 18.033 15.719 17.0065C16.093 16.341 16.1615 14.647 15.907 12.3605C15.7265 10.7315 14.673 8.9335 14.3785 8.7285C14.142 8.565 13.748 8.645 13.6205 8.741C13.55 8.8215 13.4455 9.2925 13.405 9.741L13.2795 11.1245L12.915 9.784C12.915 9.784 12.753 9.189 12.651 8.7175C12.564 8.319 12.342 8.086 12.1725 8.039C11.986 7.986 11.6115 8.1195 11.358 8.3355C11.22 8.453 11.1175 9.132 11.113 9.667L11.094 11.7455L10.6195 9.7215C10.6175 9.7125 10.419 8.87 10.1515 8.3115C9.93551 7.8585 9.46051 7.8355 9.36801 7.8355C9.22251 7.8455 8.69001 8.0245 8.51801 8.423C8.39801 8.7025 8.67001 10.161 8.99051 11.3515L8.51651 11.5075C8.50001 11.464 6.75751 7.0365 6.02501 6.11C5.55401 5.514 5.23901 5.445 5.04301 5.445C4.93301 5.445 4.82701 5.467 4.71551 5.4905L4.60801 5.512C4.32701 5.564 4.03151 5.9225 3.97301 6.279C3.97751 6.47 4.49501 7.349 4.91101 8.0555C5.36751 8.8315 5.88551 9.711 6.24101 10.4845C6.33151 10.681 6.41551 10.8855 6.49301 11.0945L6.49401 11.098C7.03651 11.8455 7.30651 14.304 7.33601 14.5865L6.83951 14.644C6.83751 14.6265 6.60851 12.8755 6.05351 11.3475C6.04744 11.3409 6.04092 11.3347 6.03401 11.329Z"
        fill="black" />
</svg>