<svg width="21" height="17" viewBox="0 0 21 17" fill="none" xmlns="http://www.w3.org/2000/svg">
    <path
        d="M1.25 0.687534C1.03451 0.687534 0.827849 0.773137 0.675476 0.92551C0.523102 1.07788 0.4375 1.28455 0.4375 1.50003C0.4375 1.71552 0.523102 1.92218 0.675476 2.07456C0.827849 2.22693 1.03451 2.31253 1.25 2.31253H3.05375L5.18575 10.8438C5.36694 11.5669 6.0145 12.0625 6.75956 12.0625H16.8914C17.6251 12.0625 18.2483 11.575 18.4409 10.8682L20.5469 3.12503H18.8455L16.8906 10.4375H6.75875L4.62756 1.90628C4.53953 1.55628 4.33659 1.24595 4.05124 1.02498C3.76589 0.804006 3.41465 0.685182 3.05375 0.687534H1.25ZM15.875 12.0625C14.5384 12.0625 13.4375 13.1635 13.4375 14.5C13.4375 15.8366 14.5384 16.9375 15.875 16.9375C17.2116 16.9375 18.3125 15.8366 18.3125 14.5C18.3125 13.1635 17.2116 12.0625 15.875 12.0625ZM8.5625 12.0625C7.22594 12.0625 6.125 13.1635 6.125 14.5C6.125 15.8366 7.22594 16.9375 8.5625 16.9375C9.89906 16.9375 11 15.8366 11 14.5C11 13.1635 9.89906 12.0625 8.5625 12.0625ZM11 0.687534V4.75003H8.5625L11.8125 8.00003L15.0625 4.75003H12.625V0.687534H11ZM8.5625 13.6875C9.02075 13.6875 9.375 14.0418 9.375 14.5C9.375 14.9583 9.02075 15.3125 8.5625 15.3125C8.10425 15.3125 7.75 14.9583 7.75 14.5C7.75 14.0418 8.10425 13.6875 8.5625 13.6875ZM15.875 13.6875C16.3333 13.6875 16.6875 14.0418 16.6875 14.5C16.6875 14.9583 16.3333 15.3125 15.875 15.3125C15.4167 15.3125 15.0625 14.9583 15.0625 14.5C15.0625 14.0418 15.4167 13.6875 15.875 13.6875Z"
        fill="#6A4029" />
</svg>