<svg xmlns="http://www.w3.org/2000/svg" data-name="Layer 1" viewBox="0 0 700 550" id="female-waiting-for-order-at-cafe">
    <path
        d="M398.14029,446.12536l-15.73219,8.34515L373.306,449.3542l.75694-12.66626a23.17584,23.17584,0,0,0,4.22521,1.303,25.16149,25.16149,0,0,0,4.39783.594,19.3268,19.3268,0,0,0,4.45515-.28748,11.94041,11.94041,0,0,0,4.12953-1.60957,18.32013,18.32013,0,0,1-4.22544,1.00607,30.96731,30.96731,0,0,1-4.32087.10526c-1.447-.04784-2.88417-.22994-4.3307-.40233-1.44677-.19158-2.88394-.43111-4.33071-.709,0,0-4.91525-.20117-6.15126-1.15928,1.18806,6.908-2.19389,14.00753-2.19389,14.00753V461.1103l-16.11557,5.308-8.71894-5.126.94852-13.26987a17.39674,17.39674,0,0,0,3.98592,2.80733,18.25617,18.25617,0,0,0,4.61794,1.6767,14.82285,14.82285,0,0,0,4.90567.27789,13.94017,13.94017,0,0,0,4.69467-1.35109c-.81426.14385-1.56162.44081-2.36652.50783l-1.17846.1821-1.18805.05742a18.92577,18.92577,0,0,1-4.70427-.44069,26.16947,26.16947,0,0,1-4.52227-1.45636c-.73777-.31613-1.45636-.661-2.15577-1.04431a22.774,22.774,0,0,1-2.08886-1.21682s-2.08862-1.897-14.21828-1.897l.01918-4.12942s22.1611,7.35826,38.08509-11.986a11.08768,11.08768,0,0,1,.59391.94853,48.32955,48.32955,0,0,0,30.50649-14.4101c.19158,5.308.94853,13.52859-.757,16.91065Z">
    </path>
    <path
        d="M524.09413 444.72643a4.72052 4.72052 0 01-5.4804-3.86112L495.47534 307.007a5.6926 5.6926 0 01-.06714-.80484c0-8.84339 10.13694-45.5871 13.931-56.203 2.35693-6.60143 6.74517-18.894 2.90312-26.56853-1.581-3.17136-4.51269-5.37507-8.93929-6.74517-16.17288-5.00133-35.6035 6.15115-49.79324 14.29513-2.2229 1.27425-4.31152 2.47189-6.26612 3.53545-8.61345 4.70432-22.79361 9.07332-39.206 14.1322-12.52264 3.86118-26.722 8.23977-40.653 13.45192-28.28335 10.57758-36.06337 47.168-36.6 49.85073L318.9809 425.15219v.00959a77.70588 77.70588 0 00-1.62875 9.78232 76.13392 76.13392 0 00-.49824 10.14653 76.00088 76.00088 0 001.6767-10.022 80.10177 80.10177 0 00.51719-9.36069 91.067 91.067 0 0112.168 2.788s-3.1616 3.16182-3.58311 13.49993c-.04795 1.26466-.05754 2.63482-.01918 4.12942a57.21525 57.21525 0 01-10.72149-1.02514l-2.01191 19.3443a4.74881 4.74881 0 01-4.71385 4.24439 4.48977 4.48977 0 01-.49824-.02866 4.72878 4.72878 0 01-4.21585-5.20262l2.19413-21.15515c.00959.12456.00959.23953.00959.36409a74.32852 74.32852 0 001.8395-10.00267 76.086 76.086 0 00.67087-10.14653A76.40819 76.40819 0 00308.32654 432.52a80.54082 80.54082 0 00-.68022 9.73449c-5.06847-2.32827-8.79544-5.77735-9.23614-10.53927-.45987-4.97256 4.49351-6.71628 11.05646-6.793l11.90955-114.15949c.01894-.12456.02877-.23953.048-.3545.3352-1.81086 8.43123-44.38946 42.63614-57.18993 14.18952-5.30793 28.53248-9.73442 41.18915-13.634 15.924-4.90555 29.673-9.15 37.45282-13.39444 1.85869-1.00607 3.91878-2.18453 6.08413-3.43007 15.70341-9.0159 37.20347-21.34684 57.31454-15.13821 6.93652 2.14617 11.85177 6.03611 14.62062 11.56446 5.653 11.29616.38339 26.0607-2.4526 34.00351-4.12953 11.55487-13.06882 45.16559-13.37549 52.64847l23.06191 133.41753A4.73529 4.73529 0 01524.09413 444.72643zM374.82154 75.44842a21.65529 21.65529 0 00-4.04205 4.95087 25.73668 25.73668 0 00-2.58476 5.78243c-.17263.49777-.26269 1.02139-.40444 1.52758a11.37009 11.37009 0 00-.32678 1.54326L367.21 90.80908l-.11626 1.57378a31.24346 31.24346 0 00-.05169 3.1509c.0421 1.05.18385 2.0971.269 3.14393l.02222.27473-.14877.24041a13.90152 13.90152 0 00-2.29 8.91169 21.93737 21.93737 0 001.2725 4.624 13.80215 13.80215 0 011.123 5.07754 12.557 12.557 0 00.48794 4.67625 6.65637 6.65637 0 002.80815 3.497 13.06761 13.06761 0 004.46053 1.66635c.79414.17158 1.61284.24426 2.42336.37146l2.4671.14151.12116.00691.04679.0873c.60958 1.13578 1.19741 2.28436 1.7836 3.43388-.71227-1.076-1.42267-2.153-2.11155-3.24265l.16772.094c-3.30195.19246-6.80248.04339-9.92221-1.63553a7.859 7.859 0 01-3.45679-3.96919 13.3394 13.3394 0 01-.713-5.13437 13.40048 13.40048 0 00-1.12466-4.55122 23.34066 23.34066 0 01-1.39273-4.94017 12.61492 12.61492 0 01.44842-5.234 17.17873 17.17873 0 012.17915-4.72643l-.12632.51479c-.06386-1.09864-.18128-2.19284-.19742-3.29165l.03158-1.65045a11.051 11.051 0 01.11485-1.6453l.192-1.63886.3331-1.61688a12.22713 12.22713 0 01.40935-1.59606c.16655-.52374.294-1.05923.50432-1.56747a23.52448 23.52448 0 013.065-5.78156A19.48915 19.48915 0 01374.82154 75.44842z">
    </path>
    <path
        d="M379.37212 124.93546a8.71308 8.71308 0 001.53378-1.97208 12.79363 12.79363 0 001.01309-2.23722 19.92517 19.92517 0 00.66689-2.3909l.24865-1.2377c.0793-.41707.13146-.83812.23485-1.26314.07579.42566.10058.85536.15158 1.289-.0007.431.00912.86713-.025 1.30063a10.2645 10.2645 0 01-.53216 2.56453 8.24189 8.24189 0 01-1.25144 2.32213A5.0889 5.0889 0 01379.37212 124.93546zM366.32622 95.07207a5.11208 5.11208 0 014.89022-.87075 4.10962 4.10962 0 011.472.87075 14.57557 14.57557 0 00-3.174-.35865A17.73431 17.73431 0 00366.32622 95.07207zM367.427 101.377a1.18574 1.18574 0 000-2.37006 1.18574 1.18574 0 000 2.37006zM345.45024 186.953a148.13359 148.13359 0 016.148-16.73977 127.6647 127.6647 0 018.14773-15.848c1.54828-2.54061 3.18475-5.033 4.973-7.41932a69.91683 69.91683 0 015.734-6.873 49.63289 49.63289 0 016.68669-5.9905 37.99455 37.99455 0 017.75942-4.58187 84.88423 84.88423 0 018.48948-2.86756c2.843-.85391 5.69185-1.69138 8.56058-2.47312 2.87178-.77245 5.75759-1.50764 8.70258-2.07021a36.124 36.124 0 014.4935-.57923 16.49851 16.49851 0 014.60345.34613c1.5036.35754 2.83973.69227 4.33444.98052a24.40754 24.40754 0 014.35714 1.34822 34.57546 34.57546 0 017.71685 4.71292 93.66706 93.66706 0 0112.5631 12.71421c3.83551 4.54877 7.34236 9.34649 10.80266 14.16782q2.54384 3.65321 5.03151 7.34324c.78385 1.26472 1.61519 2.50061 2.36792 3.78287.71953 1.30109 1.483 2.57885 2.16606 3.89872a121.52383 121.52383 0 016.99218 16.37627c1.97424 5.59986 3.62217 11.30967 5.04414 17.07117a294.17234 294.17234 0 016.24623 35.03513 347.31829 347.31829 0 012.44184 35.53326l.00632.42169-.38573.17269a117.2705 117.2705 0 01-22.49466 7.298 105.49312 105.49312 0 01-23.51968 2.565 82.79748 82.79748 0 01-11.834-1.03028 65.87047 65.87047 0 01-11.51166-3.00663 58.02367 58.02367 0 01-10.73576-5.15344l-2.51037-1.613c-.81988-.56168-1.59717-1.18472-2.3974-1.77447l-1.192-.89672-1.12653-.97694-2.24325-1.96495-.21286-.18643-.03509-.31116-2.3878-21.21954-1.27928-10.5964c-.45988-3.52247-.91157-7.0616-1.53916-10.52776l.27859.40088a42.46288 42.46288 0 01-5.91033-4.76883 41.21882 41.21882 0 01-4.96765-5.72091 30.15382 30.15382 0 01-3.54264-6.71757 23.67693 23.67693 0 01-1.33449-7.48838l.45918.43409a43.99585 43.99585 0 01-9.565-.959 44.61845 44.61845 0 01-9.12338-2.91786c-1.4856-.59473-2.872-1.40045-4.28883-2.13348a44.83015 44.83015 0 01-3.985-2.64949A41.706 41.706 0 01345.45024 186.953zm.15462-.03316a43.04877 43.04877 0 007.046 6.28079 44.39575 44.39575 0 004.00111 2.53424c1.4187.69373 2.80254 1.45881 4.28322 2.01313a47.131 47.131 0 009.045 2.711 43.30455 43.30455 0 009.36736.83245l.4407-.01217.01871.44643a22.77192 22.77192 0 001.36536 7.15938 29.14494 29.14494 0 003.49563 6.439 40.12772 40.12772 0 004.89584 5.50361 41.43762 41.43762 0 005.773 4.55146l.2297.14748.04889.25369c.68326 3.534 1.17355 7.057 1.67811 10.58892l1.40723 10.59687c.9132 7.06669 1.73027 14.14179 2.516 21.2238l-.24772-.4973 2.1864 1.90606 1.0966.94846 1.16092.86847c.77917.57116 1.53495 1.17618 2.33283 1.72027l2.44231 1.56191a56.37982 56.37982 0 0010.44687 4.98841 71.9895 71.9895 0 0022.80835 3.97129 103.94615 103.94615 0 0023.17793-2.40769q5.715-1.23024 11.30487-2.98545a108.88635 108.88635 0 0010.94792-4.04246l-.37941.59408a346.32776 346.32776 0 00-2.03155-35.42524 274.60592 274.60592 0 00-5.875-35.0069c-1.39343-5.7529-3.00931-11.455-4.95572-17.04514a120.98 120.98 0 00-7.05791-16.262c-.68654-1.30787-1.45262-2.572-2.17448-3.85994-.75671-1.2673-1.58313-2.49166-2.37564-3.73615q-2.54067-3.6388-5.12928-7.24984c-3.52206-4.75631-7.0916-9.48262-10.96547-13.9456A92.59741 92.59741 0 00435.359 129.91984a33.49229 33.49229 0 00-7.43194-4.49631 23.02217 23.02217 0 00-4.1293-1.25572c-1.418-.26426-2.96067-.63841-4.34123-.961a21.25733 21.25733 0 00-8.548.28123c-2.88113.53315-5.74846 1.245-8.60409 1.99582-2.85493.76051-5.69793 1.57869-8.53719 2.41377a83.98317 83.98317 0 00-8.36246 2.76709 36.76311 36.76311 0 00-7.53885 4.396c-1.19366.84589-2.29728 1.81061-3.41656 2.75563-1.06618 1.00531-2.16605 1.97769-3.16908 3.05212a68.81206 68.81206 0 00-5.74378 6.69248c-1.8 2.33272-3.45562 4.77859-5.02636 7.27692A152.59619 152.59619 0 00345.60486 186.91988z">
    </path>
    <path
        d="M388.47328 159.63329c.00819 3.48054-.07344 6.95435-.2159 10.42355-.14783 3.46878-.33122 6.93487-.57964 10.39611q-.3442 5.194-.83227 10.37711c-.31064 3.4565-.69169 6.90774-1.1118 10.356l-.0428.35011-.30924.00889c-2.00348.05778-4.00158.17076-6.00951.18064 1.97378-.36935 3.95737-.63554 5.93559-.957l-.3518.35877c.10128-3.4723.2414-6.94166.45215-10.40571q.3021-5.19712.73216-10.38465c.273-3.45937.611-6.91383.98454-10.36559C387.50371 166.5201 387.94347 163.07331 388.47328 159.63329zM388.00139 108.75669s-1.519 20.72931 5.5912 29.546 14.50482 16.21127 17.06449 23.32147 24.1747 11.94515 26.45 0-7.39462-17.06449-9.10107-24.45911-2.55967-22.18384-4.83494-29.57846 5.11935-20.193-16.78008-34.98221-33.70238 4.84693-33.70238 4.84693 5.83037 26.72239 10.3809 19.04336c0 0 6.257-4.83494 5.68816 7.11021M355.186 255.09462l-.12351-.78034c21.72321-3.43855 42.91684-5.482 43.1283-5.50167l.07486.78595C398.05421 249.61914 376.8849 251.66075 355.186 255.09462zM369.32922 321.4929l6.28974 15.47593 6.24061 15.49523 12.358 31.03829.74058 1.86032-1.74571-1.05986a17.56075 17.56075 0 00-4.30544-1.77518l-1.14758-.3014-1.16981-.211a21.96865 21.96865 0 00-2.36044-.28935 30.28345 30.28345 0 00-9.46911.8897l-2.31318.62818-2.25214.83648-1.12606.4173-1.08724.51637-2.17518 1.03109c-1.41752.75309-2.7899 1.59811-4.18356 2.39787l-3.97562 2.74885-.4945.3421-.46947-.37637a8.87475 8.87475 0 00-2.24347-1.1594l-1.26548-.34573-1.305-.18257c-.43742-.03859-.88256-.00468-1.323-.0131-.22058.00726-.4421-.01614-.66221.0124l-.66011.09977c-.43953.07087-.88256.11941-1.31975.20526l-1.28934.39321a27.5491 27.5491 0 00-9.26981 5.71337 62.88652 62.88652 0 00-7.41838 8.31661l-1.65822 2.259-.82947 1.12945-.75952 1.18069-3.02662 4.732-.86806 1.35718-.39766-1.53706q-2.32979-9.00321-4.60181-18.02162L313.235 377.26185l-4.50146-18.04759-4.43128-18.0656 4.9466 17.93168 4.87595 17.94982 4.82754 17.96221q2.4312 8.97672 4.77561 17.97578l-1.26548-.17988 3.03809-4.80462.76326-1.199.83648-1.15239 1.67389-2.30488a64.28281 64.28281 0 017.56318-8.55965 29.01348 29.01348 0 019.8015-6.08518l1.41214-.43449c.484-.09907.97941-.15965 1.469-.23942l.7366-.11146c.24631-.03134.49894-.01275.74829-.01941.49988.00935 1.00116-.02059 1.4994.02561a10.86205 10.86205 0 015.68553 2.08407l-.96373-.03427 4.08486-2.79388c1.43624-.817 2.84979-1.67612 4.31339-2.44348l2.2498-1.05332 1.12489-.526 1.16888-.42772 2.338-.85355 2.40979-.64245a31.699 31.699 0 019.9222-.87753 22.39426 22.39426 0 019.631 2.85516l-1.0049.80046-11.90369-31.21536-5.89022-15.63172zM295.77022 308.13361c-.73356-2.19278-1.36981-4.4131-2.05845-6.6226a27.41016 27.41016 0 01-.92677-6.95722 33.22655 33.22655 0 012.672-13.76683 29.23148 29.23148 0 018.52222-11.14259c.95461-.686 1.85986-1.43864 2.84955-2.06179L309.873 265.847a50.25584 50.25584 0 016.493-2.49189l-1.56676.7394-.78572.356-.75742.41473c-1.00653.55678-2.01915 1.09244-3.00814 1.65963l-2.83365 1.9119c-.912.675-1.75693 1.43688-2.636 2.14658a11.54261 11.54261 0 00-1.21659 1.17759l-1.18548 1.20653a11.671 11.671 0 00-1.0884 1.28946l-1.04373 1.3253c-.65964.90847-1.22759 1.88208-1.8477 2.81757-.498 1.00688-1.05074 1.98839-1.49261 3.02031a31.25077 31.25077 0 00-1.18782 3.15563l-.49379 1.61553-.37473 1.64881c-.29216 1.09232-.39883 2.22038-.58549 3.33574-.0669.5611-.09451 1.12648-.15018 1.68986a15.859 15.859 0 00-.09848 1.69524 30.51607 30.51607 0 00.44865 6.77593C294.89561 303.6004 295.38145 305.85323 295.77022 308.13361zM481.16512 299.18291h-.22175l-.00374-.39672-.334-.204a60.73172 60.73172 0 008.1524-23.7957l.78783.06363a61.59467 61.59467 0 01-8.26469 24.14376zM339.55512 292.73633c4.30216.77175 8.5952 1.57068 12.90415 2.28231 4.29936.75795 8.60339 1.48548 12.91585 2.15336 8.623 1.33578 17.25474 2.60968 25.92011 3.50651 4.33.46251 8.66959.82449 13.01059 1.0149a85.82305 85.82305 0 0012.97549-.24679 23.52973 23.52973 0 006.21395-1.4312 7.42618 7.42618 0 002.55085-1.67618c.15181-.1938.31227-.38467.44771-.58929.11111-.22672.23953-.40684.34432-.67058l.65239-1.50272c1.78664-3.9879 3.523-7.9965 5.35408-11.96616-1.49986 4.10626-3.094 8.17352-4.63807 12.26147l-.59648 1.52577c-.08772.24824-.25193.5338-.37847.79818-.15509.25485-.33918.49257-.51789.73075a8.33655 8.33655 0 01-2.81376 2.001 24.54911 24.54911 0 01-6.46 1.724 77.27326 77.27326 0 01-13.19047.53683c-4.38894-.147-8.76058-.49993-13.11888-.93946-8.71029-.94156-17.36655-2.26084-25.961-3.88474q-6.44483-1.22226-12.85784-2.58991C348.04787 294.80625 343.78126 293.85579 339.55512 292.73633zM400.41815 268.27719c-9.14841.62128-18.29683.764-27.44524.78953-9.14841-.02223-18.29683-.16451-27.44524-.78953 9.14841-.62508 18.29683-.76735 27.44524-.78958C382.12132 267.51317 391.26974 267.65592 400.41815 268.27719z">
    </path>
    <path
        d="M357.18833 390.57278c-.63274-3.08043-1.16536-6.17547-1.75085-9.2628l-1.58758-9.28677c-1.05613-6.1915-1.98945-12.401-2.92254-18.61063-.89566-6.21506-1.78828-12.43059-2.56-18.66395l-1.1518-9.35081c-.32678-3.12534-.70736-6.24278-.98665-9.37508.63367 3.08019 1.16653 6.1753 1.753 9.26245l1.588 9.28666c1.055 6.19167 1.989 12.40117 2.91973 18.611.89379 6.21547 1.78688 12.43094 2.55716 18.66442l1.1525 9.35075C356.527 384.32316 356.90763 387.44066 357.18833 390.57278zM405.07025 272.21673c.495 2.80575.98291 5.58642 1.53168 8.34848.55952 2.75839 1.15951 5.50034 1.9333 8.18206a38.96823 38.96823 0 002.97493 7.744c1.29 2.38921 3.0685 4.68111 5.83057 5.56057a7.35947 7.35947 0 01-3.98638-1.64015 13.32048 13.32048 0 01-2.90195-3.28721 25.16613 25.16613 0 01-2.02056-3.85866c-.546-1.33957-1.003-2.70774-1.415-4.08527a54.10732 54.10732 0 01-1.62828-8.42491A50.47833 50.47833 0 01405.07025 272.21673zM329.671 403.35705c1.12467 2.16114 2.135 4.37608 3.087 6.62073.94993 2.24511 1.84 4.52239 2.567 6.86727a30.35718 30.35718 0 011.509 7.298 11.5175 11.5175 0 01-.08094 1.97307c-.04561.33626-.14806.68315-.22736 1.024a4.92741 4.92741 0 01-.49543 1.02185 3.35911 3.35911 0 01-1.94477 1.41917 5.63318 5.63318 0 01-2.196.0214l-.98969-.22666-.86478-.24538-1.73916-.463c-1.16139-.304-2.33588-.55882-3.50592-.82712-2.34663-.50923-4.71011-.94806-7.08411-1.263a64.14483 64.14483 0 00-7.123-.59836 25.64708 25.64708 0 00-6.9337.62888 8.14156 8.14156 0 00-2.93634 1.34151 3.8541 3.8541 0 00-1.469 2.53341 7.73505 7.73505 0 00.34081 3.24569 9.91026 9.91026 0 001.56208 3.00885 16.768 16.768 0 005.39853 4.45046 32.39206 32.39206 0 006.66681 2.66347A51.48668 51.48668 0 00327.50967 445.71c2.43412-.00912 4.87666-.00351 7.32294.16643 1.22314.09614 2.44792.20912 3.67317.41941.61286.10971 1.22571.22935 1.84.40128q.46035.12369.92537.29415c.15649.06433.30994.11824.47087.19953a2.741 2.741 0 01.24421.12561 1.78315 1.78315 0 01.30175.203l.23929.1938-.018.35859c-.22385 4.43058-.4173 8.86339-.684 13.291l-.46432-.88245 8.79076 5.00145-.88607-.0945 16.07206-5.44367-.84092 1.16221c-.04421-3.85527-.03813-7.71054-.04281-11.56581l-.00023-.26947.123-.2745a30.088 30.088 0 001.55811-4.57093 26.57667 26.57667 0 00.77917-4.77783 18.8353 18.8353 0 00-.34175-4.72531 13.82914 13.82914 0 00-1.76934-4.27772l-.12046-.19556-.03509-.13555L362.05025 420.29q-1.29332-5.01151-2.44628-10.06034c-.77753-3.36311-1.55015-6.72833-2.228-10.1167q-.51087-2.53978-.94408-5.09864c-.12234-.85871-.28678-1.70536-.374-2.5712l-.131-1.29565c-.02106-.438-.00445-.88362-.007-1.31928l.236.02035c.03977.42467.05824.843.113 1.2622l.23438 1.26385c.15439.8408.36631 1.67845.5462 2.51634.403 1.672.825 3.33948 1.27647 5.00121.88958 3.32557 1.78664 6.65009 2.7368 9.96139l2.8416 9.93542 2.88955 9.919-.15555-.33076a15.84767 15.84767 0 012.24862 5.00964 21.20526 21.20526 0 01.46947 5.38566 29.05159 29.05159 0 01-.781 5.261 28.654 28.654 0 01-1.71085 5.05022l.12257-.54362c-.00468 3.85527.00163 7.71054-.04258 11.56581l-.01029.89648-.83086.266-16.16072 5.17408-.47742.15287-.40865-.24749-8.65275-5.237-.5118-.3097.04748-.573c.36514-4.42052.80373-8.8359 1.21192-13.25339l.221.552a2.5218 2.5218 0 00-.23345-.13824c-.1069-.0621-.23836-.11438-.35976-.17158-.25544-.10643-.52187-.20537-.79835-.29029-.54877-.1773-1.124-.31321-1.7015-.44-1.16022-.246-2.35108-.4028-3.54335-.54292-2.39131-.25566-4.80718-.37578-7.22773-.40163a60.37621 60.37621 0 01-14.499-1.96091 36.83694 36.83694 0 01-6.89862-2.56616 18.04762 18.04762 0 01-5.96576-4.48684 10.29842 10.29842 0 01-2.50851-7.24891 5.58571 5.58571 0 011.92466-3.69878 9.84887 9.84887 0 013.55012-1.8519 20.015 20.015 0 013.75855-.70373 29.39068 29.39068 0 013.74685-.1531 55.3255 55.3255 0 017.38259.62081c2.43575.35286 4.84508.83005 7.23662 1.37893q1.79192.42051 3.56323.92361l1.76746.51917.88022.27415.78058.1993a5.0786 5.0786 0 00.74548.09391 4.49979 4.49979 0 00.672-.04537 1.62539 1.62539 0 00.94221-.65228 5.33028 5.33028 0 00.64537-2.99914 31.93023 31.93023 0 00-1.12934-6.99148 117.05027 117.05027 0 00-4.64672-13.73607z">
    </path>
    <path
        d="M343.15741 426.21861c.03251.529.08374 1.031.1338 1.51413a5.91432 5.91432 0 00.29848 1.36747 2.82455 2.82455 0 00.698 1.09542 4.54945 4.54945 0 001.24.76315 2.35864 2.35864 0 01-1.60138-.26362 2.54487 2.54487 0 01-1.079-1.3263A3.9181 3.9181 0 01343.15741 426.21861zM306.71042 442.01044a40.37722 40.37722 0 013.0961-17.26386l.713.34058a39.54759 39.54759 0 00-3.01937 16.89147zM360.0325 388.57105a74.55271 74.55271 0 013.39317 7.66329q1.50559 3.89223 2.76628 7.862c.4152 1.32477.82174 2.65224 1.19765 3.98953l.549 2.01074a8.32188 8.32188 0 01.25216 1.14852 6.50787 6.50787 0 01.02994 1.216 6.15882 6.15882 0 01-1.98032 4.17409 17.664 17.664 0 01-1.75576 1.255c-.5862.38374-1.1759.76385-1.78595 1.12022.43672-.55554.89379-1.08747 1.35437-1.61565.44257-.52876.98408-1.04443 1.3263-1.54243a5.24573 5.24573 0 00.9918-3.40826 5.96191 5.96191 0 00-.41216-1.72056l-.70876-1.96009c-.46245-1.30981-.894-2.62944-1.31718-3.95176q-1.26-3.96994-2.26359-8.02106A74.59525 74.59525 0 01360.0325 388.57105zM375.9593 417.68633a3.809 3.809 0 001.26478 2.236 3.636 3.636 0 001.13659.51169c.43228.10783.89332.18666 1.39063.28608a6.95912 6.95912 0 01-.71087.252 4.63471 4.63471 0 01-.76163.073 2.76823 2.76823 0 01-1.52278-.487 2.36457 2.36457 0 01-.89145-1.35355A2.523 2.523 0 01375.9593 417.68633z">
    </path>
    <path
        d="M384.22866 380.96051c2.14126 4.06334 4.02077 8.23907 5.82823 12.44638.88654 2.11073 1.76114 4.22743 2.58055 6.36682.8318 2.13482 1.62734 4.28544 2.32909 6.47289.71087 2.18523 1.33519 4.39994 1.84816 6.66377a21.93482 21.93482 0 01.5621 3.52042c.00491 1.14981-.011 2.28406.02386 3.42978.03462 2.28839.123 4.57795.1069 6.88-.02433 1.151-.04912 2.30558-.164 3.46592a11.85753 11.85753 0 01-.79741 3.49586l.05146-.33544c.844 4.19936 1.79015 8.38176 2.56745 12.59188l.13193.71367-.66877.36994-7.79428 4.31129c-2.59177 1.449-5.21022 2.84791-7.83357 4.23748l-.622.32959-.59485-.34468-4.5176-2.61832c-1.50922-.86666-2.99411-1.7767-4.49233-2.66289l-.608-.35964.05754-.6497c.37357-4.21305.78338-8.424 1.28186-12.62966l.53543.59216c-1.07437-.11088-2.12114-.285-3.17142-.49964-.5235-.113-1.04513-.24093-1.56045-.40023a4.57646 4.57646 0 01-1.47179-.72853l.1455-.18713a4.40011 4.40011 0 001.44465.43461c.509.08515 1.02479.1407 1.54267.18164 1.03508.07567 2.08746.09216 3.116.08175l.53684-.0055-.00094.59777c-.00748 4.235-.10315 8.4648-.23508 12.69235l-.5504-1.009c1.53541.82023 3.08417 1.61659 4.60859 2.45646l4.58333 2.5009-1.21659-.0152c2.62242-1.39121 5.24975-2.77318 7.90375-4.105L397.658 445.212l-.53683 1.08326c-.61309-4.23725-1.0573-8.50234-1.60372-12.75046l-.02456-.19193.076-.14386a9.85015 9.85015 0 00.927-3.10931 28.68 28.68 0 00.27134-3.37282 63.91838 63.91838 0 00-.23439-6.82459c-.08327-1.13624-.18666-2.28663-.30245-3.4175a21.20737 21.20737 0 00-.84069-3.18007c-.716-2.13915-1.56887-4.25257-2.34874-6.387-1.58758-4.26321-3.127-8.55707-4.66426-12.8562-1.51577-4.30812-3.03248-8.61929-4.36719-13.01035zM377.484 201.68126a13.00372 13.00372 0 01-.41543 1.26349l-.426 1.19074-.85707 2.37991-1.7291 4.75438-3.5265 9.4849c-2.41938 6.2977-4.88882 12.57726-7.49767 18.80636-.64771 1.5591-1.31016 3.11247-2.00606 4.65286-.673 1.54916-1.39156 3.08124-2.11014 4.61356a48.84405 48.84405 0 01-5.08368 8.86964c-2.06009 2.72412-4.31853 5.24543-6.58119 7.75773-2.26711 2.50693-4.58778 4.95713-6.90985 7.40119-4.63035 4.896-9.27286 9.78677-13.50438 14.98-1.03975 1.30951-2.05541 2.63874-2.96464 4.02667a15.1364 15.1364 0 00-2.12 4.36386l-.11041.56561c-.01731.18543-.004.36484-.01122.54806-.00585.36906.04374.84882.062 1.26741a11.37226 11.37226 0 01.00983 1.29372c-.0117.42994-.00912.86139-.058 1.2863a40.39721 40.39721 0 01-.72958 5.05771 98.05877 98.05877 0 01-2.661 9.79577c-.50175 1.6108-1.03952 3.21411-1.51928 4.8176a12.74226 12.74226 0 00-.338 4.91239c.2704 3.34527.643 6.72061.65051 10.10676.00187.847.01614 1.68892-.04046 2.54815a5.43521 5.43521 0 01-.66269 2.55125 1.40924 1.40924 0 01-.57917.49456 1.30051 1.30051 0 01-.77332.05877 3.03287 3.03287 0 01-1.21145-.64777 10.096 10.096 0 01-1.74945-1.91991l.48444-.09883a9.58243 9.58243 0 01-.86548 2.6085 3.49348 3.49348 0 01-.90876 1.12057 2.16411 2.16411 0 01-1.42782.45865 4.51166 4.51166 0 01-2.54195-1.20841 12.78192 12.78192 0 01-1.87834-2.00114l.53332-.06474a6.65064 6.65064 0 01-.64888 1.26344 2.66452 2.66452 0 01-1.12349 1.01484 2.02385 2.02385 0 01-1.5705-.03006 4.33665 4.33665 0 01-1.22314-.80438 11.77362 11.77362 0 01-1.789-2.1371 22.08239 22.08239 0 01-1.39273-2.38032l.6807.0455a6.15677 6.15677 0 01-.84537 1.06606 2.45317 2.45317 0 01-.61543.44579 1.32147 1.32147 0 01-.89426.09994 2.0016 2.0016 0 01-1.14127-1.06671 6.83551 6.83551 0 01-.51134-1.25 29.23027 29.23027 0 01-.94455-5.07146c-.36771-3.39562-.5518-6.77645-.6166-10.18933a50.72411 50.72411 0 01.18807-5.13432 21.86776 21.86776 0 011.02221-5.10689 21.33053 21.33053 0 012.37353-4.64169 41.40435 41.40435 0 002.50289-4.33643c2.90453-6.06366 5.58776-12.30568 8.28387-18.506 2.676-6.21682 5.32226-12.44972 7.88621-18.70817l1.90827-4.69339 1.82384-4.75075c1.31647-3.14616 2.68628-6.2419 4.07129-9.33636 2.77353-6.18442 5.56086-12.35855 8.40924-18.50513 5.71361-12.28475 11.416-24.57242 17.25591-36.79728l.29169-.6104.4842.481a35.1345 35.1345 0 006.07664 4.71952 43.91978 43.91978 0 006.89792 3.53317 42.25215 42.25215 0 007.4254 2.28032c1.2629.31228 2.55435.46146 3.84065.6521C374.82294 201.49857 376.19836 201.55541 377.484 201.68126zm-.13052.08889c-1.31437-.06281-2.55436-.02837-3.85048-.178-1.29823-.15415-2.60511-.26748-3.88626-.5452a42.731 42.731 0 01-7.57276-2.0895 41.30649 41.30649 0 01-7.09347-3.42089 35.862 35.862 0 01-6.34635-4.739l.77543-.12936-16.72141 37.03453-8.3241 18.52711c-1.37378 3.091-2.73634 6.19331-4.02614 9.29853l-1.80442 4.738-1.90571 4.7228c-2.6037 6.26313-5.30121 12.47813-8.02094 18.68594-2.75529 6.19851-5.43946 12.39966-8.46234 18.517a42.75806 42.75806 0 01-2.63646 4.419 20.07419 20.07419 0 00-2.31014 4.34257 30.79459 30.79459 0 00-1.29 9.82548c.0138 3.35872.14853 6.7509.46128 10.094a28.51182 28.51182 0 00.83624 4.916 6.028 6.028 0 00.42854 1.10454c.16912.33018.411.6297.61145.67239.17848.06725.47765-.07187.74783-.3349a5.41 5.41 0 00.74057-.91017l.38456-.56777.29637.61333a21.382 21.382 0 001.30267 2.30768 11.0975 11.0975 0 001.64161 2.0305c.61005.57286 1.40045 1.03 2.06968.74736a3.46575 3.46575 0 001.45846-1.90219l.21357-.50047.32.43573a11.351 11.351 0 001.7567 1.9122 3.989 3.989 0 002.19062 1.08682 2.0407 2.0407 0 001.82711-1.27746 9.07681 9.07681 0 00.82338-2.4498l.12959-.59391.35508.49508a9.5986 9.5986 0 001.63577 1.81834c.599.51754 1.43179.871 1.822.20526a5.067 5.067 0 00.58362-2.29236c.05941-.82292.051-1.66893.0538-2.5071-.011-3.36382-.422-6.69921-.716-10.071a13.313 13.313 0 01.32-5.11367c.47438-1.63056.99671-3.22885 1.48536-4.841a93.00751 93.00751 0 002.46079-9.76554 39.4891 39.4891 0 00.61777-4.96c.04-.41444.0283-.82694.03157-1.23969a10.598 10.598 0 00-.03321-1.23279c-.02807-.4228-.07415-.78256-.08561-1.25635-.00047-.23755-.01568-.482.003-.71467l.11672-.6783A16.03488 16.03488 0 01322.943 291.269c.91227-1.4511 1.92091-2.82289 2.952-4.17322 2.07669-2.68809 4.2907-5.2511 6.56154-7.754 2.26477-2.50874 4.5686-4.97625 6.87336-7.4382 4.56415-4.954 9.34888-9.73841 13.45689-15a47.61811 47.61811 0 005.01374-8.612c1.46524-3.02154 2.82709-6.1 4.18871-9.17929 2.71388-6.16348 5.29513-12.39147 7.82633-18.639L373.619 211.102l1.87366-4.69748.92935-2.3519.46221-1.17682A9.69466 9.69466 0 01377.35344 201.77015z">
    </path>
    <polygon points="307.891 320.229 312.636 338.72 311.867 338.901 307.891 320.229"></polygon>
    <polygon points="302.203 320.229 305.532 339.605 304.751 339.723 302.203 320.229"></polygon>
    <polygon points="297.178 320.229 298.426 336.515 297.637 336.556 297.178 320.229"></polygon>
    <path
        d="M435.49744,482.91094c-.03836,0-.07672,0-.11509-.00094a4.74146,4.74146,0,0,1-4.6259-4.85233L434.35874,327.321a4.75861,4.75861,0,0,1,.04959-.57637l14.72074-100.183a4.74,4.74,0,0,1,9.37905,1.37916l-14.67863,99.89572L440.23468,478.2841A4.74051,4.74051,0,0,1,435.49744,482.91094Z">
    </path>
    <path
        d="M500.14909,306.19805l-1.13759,7.96339c-10.99725,13.65162-54.03768,22.37346-54.03768,22.37346H432.84708l-104.882-24.83767,3.25381-9.16685s71.47292,22.62822,112.99657,18.64647c19.33974-1.85653,30.41588-12.03994,36.72024-22.38922h.00791C501.54744,301.22877,500.14909,306.19805,500.14909,306.19805Z">
    </path>
    <path
        d="M399.66354 410.91192c-.07392 0-.14877-.00187-.22362-.00468a4.74062 4.74062 0 01-4.5155-4.95526l3.6837-79.2457a4.74048 4.74048 0 019.47075.43976l-3.6837 79.2457A4.74085 4.74085 0 01399.66354 410.91192zM331.75663 227.95382c-14.35232 1.50045-28.78885 2.19588-43.22608 2.36167-14.43606.082-28.89341-.19023-43.29391-1.39636q-10.79634-.92148-21.53655-2.38511-5.3673-.73507-10.70769-1.64694c-3.56252-.588-7.118-1.22349-10.65576-1.95284-3.53913-.7239-7.0509-1.57576-10.54606-2.49979a80.57794 80.57794 0 01-10.311-3.41089 34.16136 34.16136 0 01-4.875-2.4878 11.27444 11.27444 0 01-4.03714-3.8786 4.66794 4.66794 0 01-.534-2.93651 5.91736 5.91736 0 011.24793-2.67938 15.55607 15.55607 0 014.3555-3.52545 53.7266 53.7266 0 0110.06489-4.30631c3.45282-1.14367 6.96271-2.07635 10.493-2.89616 7.06142-1.63869 14.19863-2.88055 21.36368-3.86492 14.3301-1.98214 28.75353-3.14826 43.19169-3.7089 14.44051-.54373 28.89458-.45865 43.32479.1014 14.42811.60777 28.83727 1.73478 43.13345 3.75335l-.01684-.00117.03158.00087v.237l-.03158.00087-.00234.00006-.01474-.00128c-14.3591-1.23946-28.7582-1.90612-43.15286-2.13664-14.39536-.26111-28.79563-.03871-43.1697.57151-14.37127.62181-28.73809 1.58478-42.99895 3.39247-7.12528.92238-14.23162 2.00915-21.24907 3.49036-3.50474.7528-6.98961 1.59285-10.41763 2.60377a52.37092 52.37092 0 00-9.90724 3.89082 14.42155 14.42155 0 00-4.09374 3.12294 4.81182 4.81182 0 00-1.07765 2.13342 3.60692 3.60692 0 00.36772 2.29371 10.33822 10.33822 0 003.60767 3.599 33.33261 33.33261 0 004.72438 2.46535 103.13683 103.13683 0 0020.69048 5.87214c3.53375.67444 7.0806 1.28682 10.64359 1.79454q5.34835.73754 10.718 1.29986c7.158.75479 14.33594 1.30256 21.51924 1.72758a801.65635 801.65635 0 0086.36022.76607zM369.17039 223.721l-.14035-.7766a159.56142 159.56142 0 0017.95157-4.17679l.23017.756A160.253 160.253 0 01369.17039 223.721zM241.85891 174.991c.05427-.41643.509-.60719.83882-.76964a8.819 8.819 0 011.10758-.40222 21.73912 21.73912 0 012.29284-.46292 33.57631 33.57631 0 019.29765-.00175 21.897 21.897 0 012.29283.46309 8.81416 8.81416 0 011.10759.40286c.32959.16269.78455.35392.83835.77058-.13567-.37356-.57122-.45649-.91133-.57432a8.55738 8.55738 0 00-1.11671-.2207 22.7523 22.7523 0 00-2.27576-.23731q-2.28734-.14218-4.5838-.13713-2.294-.00438-4.584.13608c-.76256.046-1.52442.11643-2.27576.23777a8.55592 8.55592 0 00-1.11694.22111C242.43036 174.53455 241.99434 174.61742 241.85891 174.991z">
    </path>
    <path
        d="M259.63456 174.991v34.2712a28.48381 28.48381 0 01-17.77552 0V174.991c0 .8611 3.98156 1.56423 8.88776 1.56423C255.66072 176.55526 259.63456 175.85213 259.63456 174.991zM262.90517 166.601c.05427-.41637.509-.60713.83882-.76964a8.81825 8.81825 0 011.10759-.40216 21.729 21.729 0 012.2926-.463 33.58105 33.58105 0 019.29788-.00169 21.882 21.882 0 012.29284.463 8.82436 8.82436 0 011.10758.40292c.32959.16263.78455.35386.83812.77052-.13544-.37351-.57122-.45649-.9111-.57432a8.5531 8.5531 0 00-1.11694-.22064 22.72034 22.72034 0 00-2.27576-.23737q-2.287-.14218-4.5838-.13713-2.294-.00439-4.58379.13614c-.76257.046-1.52466.11643-2.276.23771a8.55855 8.55855 0 00-1.11671.22117C263.47662 166.14449 263.04061 166.22736 262.90517 166.601zM280.68068 166.601v34.2712a28.48377 28.48377 0 01-17.77551 0V166.601c0 .8611 3.98174 1.56423 8.88776 1.56423C276.70685 168.16522 280.68068 167.46209 280.68068 166.601z">
    </path>
    <rect width="9.48" height="152.422" x="275.942" y="230.268"></rect>
    <path
        d="M240.01,439.17539a3.95121,3.95121,0,0,1-3.60416-5.56343c.81122-1.81331,20.12043-44.55051,42.31147-57.27361a3.95061,3.95061,0,1,1,3.92977,6.85465c-19.96136,11.44405-38.8411,53.225-39.03011,53.64605A3.95118,3.95118,0,0,1,240.01,439.17539Z">
    </path>
    <path
        d="M252.531,464.48873a4.007,4.007,0,0,1-.75507-.073,3.95,3.95,0,0,1-3.12792-4.62871c.495-2.55809,12.30674-62.90253,28.86792-85.10668a3.95,3.95,0,0,1,6.33254,4.72321c-15.49172,20.77072-27.32594,81.27515-27.44384,81.88427A3.9513,3.9513,0,0,1,252.531,464.48873Z">
    </path>
    <path
        d="M307.06971,427.925a3.95146,3.95146,0,0,1-3.81-2.91926h0c-.08234-.30315-8.42936-30.46976-26.40526-44.77038a3.95008,3.95008,0,0,1,4.91783-6.18284c20.0278,15.93241,28.75189,47.5521,29.114,48.891a3.95333,3.95333,0,0,1-3.81656,4.98145Z">
    </path>
    <path
        d="M294.95853 465.18954a3.95027 3.95027 0 01-3.9438-3.7941c-.02526-.61941-2.60207-62.22792-14.77688-85.08609a3.95014 3.95014 0 116.97254-3.71457C296.232 397.04357 298.805 458.47992 298.908 461.08293a3.94854 3.94854 0 01-3.79035 4.10287C295.06426 465.1886 295.01093 465.18954 294.95853 465.18954zM470.63361 194.97225c2.62518 0 2.62953-4.07984 0-4.07984-2.62519 0-2.62954 4.07984 0 4.07984zM476.5551 212.22182c2.62519 0 2.62953-4.07984 0-4.07984-2.62518 0-2.62953 4.07984 0 4.07984zM482.312 230.3032c2.62518 0 2.62953-4.07985 0-4.07985-2.62519 0-2.62954 4.07985 0 4.07985zM456.21224 169.05325c2.62519 0 2.62954-4.07984 0-4.07984-2.62518 0-2.62953 4.07984 0 4.07984zM451.04642 180.30519c2.62519 0 2.62954-4.07984 0-4.07984-2.62518 0-2.62953 4.07984 0 4.07984zM447.74524 192.61768c2.62518 0 2.62953-4.07985 0-4.07985-2.62519 0-2.62953 4.07985 0 4.07985zM460.05772 195.91886c2.62519 0 2.62954-4.07984 0-4.07984-2.62518 0-2.62953 4.07984 0 4.07984zM454.64413 216.28428c2.62518 0 2.62953-4.07984 0-4.07984-2.62519 0-2.62953 4.07984 0 4.07984zM465.3294 220.81932c2.62518 0 2.62953-4.07984 0-4.07984-2.62519 0-2.62954 4.07984 0 4.07984zM466.76594 207.44629c2.62519 0 2.62954-4.07984 0-4.07984-2.62518 0-2.62953 4.07984 0 4.07984zM463.32251 182.04327c2.62518 0 2.62953-4.07984 0-4.07984-2.62519 0-2.62953 4.07984 0 4.07984zM443.21888 207.62661c2.62519 0 2.62954-4.07985 0-4.07985-2.62518 0-2.62953 4.07985 0 4.07985zM447.71418 226.84133c2.62519 0 2.62954-4.07985 0-4.07985-2.62518 0-2.62953 4.07985 0 4.07985zM468.06057 239.33914c2.62519 0 2.62953-4.07984 0-4.07984-2.62518 0-2.62953 4.07984 0 4.07984zM479.2484 245.70242c2.62518 0 2.62953-4.07985 0-4.07985-2.62519 0-2.62954 4.07985 0 4.07985zM434.72583 218.22005c2.62519 0 2.62954-4.07985 0-4.07985-2.62518 0-2.62953 4.07985 0 4.07985zM441.30383 164.89255c2.62518 0 2.62953-4.07985 0-4.07985-2.62519 0-2.62954 4.07985 0 4.07985zM435.00466 174.88292c2.62519 0 2.62954-4.07985 0-4.07985-2.62518 0-2.62953 4.07985 0 4.07985zM430.506 187.13129c2.62519 0 2.62954-4.07985 0-4.07985-2.62518 0-2.62953 4.07985 0 4.07985zM426.44583 202.40536c2.62518 0 2.62953-4.07985 0-4.07985-2.62519 0-2.62954 4.07985 0 4.07985zM398.22818 207.44629c2.62519 0 2.62954-4.07984 0-4.07984-2.62518 0-2.62953 4.07984 0 4.07984zM420.7307 221.67383c2.62518 0 2.62953-4.07984 0-4.07984-2.62519 0-2.62953 4.07984 0 4.07984zM431.0954 232.19615c2.62518 0 2.62953-4.07985 0-4.07985-2.62519 0-2.62953 4.07985 0 4.07985zM461.54135 255.68243c2.62519 0 2.62953-4.07984 0-4.07984-2.62518 0-2.62953 4.07984 0 4.07984zM437.443 196.62945c2.62519 0 2.62954-4.07984 0-4.07984-2.62518 0-2.62953 4.07984 0 4.07984zM413.32758 211.91053c2.62519 0 2.62953-4.07984 0-4.07984-2.62518 0-2.62953 4.07984 0 4.07984zM432.8445 266.43549c2.62518 0 2.62953-4.07985 0-4.07985-2.62519 0-2.62954 4.07985 0 4.07985zM416.11753 193.44615c2.62518 0 2.62953-4.07985 0-4.07985-2.62519 0-2.62954 4.07985 0 4.07985zM421.86905 175.74077c2.62519 0 2.62953-4.07984 0-4.07984-2.62518 0-2.62953 4.07984 0 4.07984zM406.81337 181.05919c2.62519 0 2.62953-4.07984 0-4.07984-2.62518 0-2.62953 4.07984 0 4.07984zM401.05316 194.44091c2.62519 0 2.62954-4.07985 0-4.07985-2.62518 0-2.62953 4.07985 0 4.07985zM423.43416 242.95421c2.62518 0 2.62953-4.07984 0-4.07984-2.62519 0-2.62954 4.07984 0 4.07984zM434.9322 254.73809c2.62518 0 2.62953-4.07984 0-4.07984-2.62519 0-2.62954 4.07984 0 4.07984zM447.74524 260.891c2.62518 0 2.62953-4.07985 0-4.07985-2.62519 0-2.62953 4.07985 0 4.07985zM453.81841 245.70242c2.62518 0 2.62953-4.07985 0-4.07985-2.62519 0-2.62954 4.07985 0 4.07985zM441.30383 241.43629c2.62518 0 2.62953-4.07984 0-4.07984-2.62519 0-2.62954 4.07984 0 4.07984zM450.969 154.829c2.62519 0 2.62953-4.07984 0-4.07984-2.62518 0-2.62953 4.07984 0 4.07984zM433.98642 145.34514c2.62519 0 2.62953-4.07985 0-4.07985-2.62518 0-2.62953 4.07985 0 4.07985zM442.21266 150.9494c2.62519 0 2.62954-4.07984 0-4.07984-2.62518 0-2.62953 4.07984 0 4.07984zM399.75242 156.722c2.62519 0 2.62953-4.07984 0-4.07984-2.62518 0-2.62953 4.07984 0 4.07984zM410.44637 165.58066c2.62519 0 2.62953-4.07984 0-4.07984-2.62518 0-2.62953 4.07984 0 4.07984zM477.95241 260.891c2.62518 0 2.62953-4.07985 0-4.07985-2.62519 0-2.62953 4.07985 0 4.07985zM476.162 273.36875c2.62519 0 2.62953-4.07984 0-4.07984-2.62518 0-2.62953 4.07984 0 4.07984zM443.29073 277.331c2.62519 0 2.62954-4.07985 0-4.07985-2.62518 0-2.62953 4.07985 0 4.07985zM460.05772 271.85776c2.62519 0 2.62954-4.07984 0-4.07984-2.62518 0-2.62953 4.07984 0 4.07984zM487.53708 265.84077c2.62519 0 2.62954-4.07984 0-4.07984-2.62518 0-2.62953 4.07984 0 4.07984zM381.45176 138.8711c2.62519 0 2.62954-4.07984 0-4.07984-2.62518 0-2.62953 4.07984 0 4.07984zM387.82205 147.73848c2.62519 0 2.62954-4.07984 0-4.07984-2.62518 0-2.62953 4.07984 0 4.07984zM390.85476 167.35524c2.62518 0 2.62953-4.07984 0-4.07984-2.62519 0-2.62953 4.07984 0 4.07984zM377.87509 163.05763c2.62519 0 2.62953-4.07985 0-4.07985-2.62518 0-2.62953 4.07985 0 4.07985zM371.69714 150.59788c2.62519 0 2.62954-4.07984 0-4.07984-2.62518 0-2.62953 4.07984 0 4.07984zM360.882 164.1893c2.62518 0 2.62953-4.07985 0-4.07985-2.62519 0-2.62954 4.07985 0 4.07985zM352.2607 177.17765c2.62518 0 2.62953-4.07985 0-4.07985-2.62519 0-2.62953 4.07985 0 4.07985zM369.75637 177.87422c2.62519 0 2.62953-4.07985 0-4.07985-2.62518 0-2.62953 4.07985 0 4.07985zM388.47324 182.04327c2.62518 0 2.62953-4.07984 0-4.07984-2.62519 0-2.62954 4.07984 0 4.07984zM381.22083 198.16654c2.62518 0 2.62953-4.07984 0-4.07984-2.62519 0-2.62954 4.07984 0 4.07984zM369.98344 191.5765c2.62518 0 2.62953-4.07985 0-4.07985-2.62519 0-2.62953 4.07985 0 4.07985zM354.55572 189.54492c2.62518 0 2.62953-4.07984 0-4.07984-2.62519 0-2.62954 4.07984 0 4.07984zM394.40447 220.81932c2.62519 0 2.62954-4.07984 0-4.07984-2.62518 0-2.62953 4.07984 0 4.07984zM405.57451 226.62661c2.62518 0 2.62953-4.07984 0-4.07984-2.62519 0-2.62954 4.07984 0 4.07984zM404.32863 252.13882c2.62519 0 2.62954-4.07984 0-4.07984-2.62518 0-2.62953 4.07984 0 4.07984zM412.71249 236.85607c2.62518 0 2.62953-4.07984 0-4.07984-2.62519 0-2.62953 4.07984 0 4.07984zM419.66681 255.00156c2.62519 0 2.62954-4.07984 0-4.07984-2.62518 0-2.62953 4.07984 0 4.07984zM406.68547 266.43549c2.62519 0 2.62954-4.07985 0-4.07985-2.62518 0-2.62953 4.07985 0 4.07985zM422.72724 271.85776c2.62518 0 2.62953-4.07984 0-4.07984-2.62519 0-2.62954 4.07984 0 4.07984z">
    </path>
    <path fill="#fff"
        d="M319.0478,425.708c-.03813-.00959-.08608-.00959-.12445-.01918l.05755-.527v-.00959c.01894-.07672.03813-.1628.05731-.23953C319.0478,425.181,319.0478,425.43967,319.0478,425.708Z">
    </path>
    <polygon fill="#fff" points="307.656 442.255 307.646 442.302 307.646 442.255 307.656 442.255"></polygon>
</svg>